<svg id="Ebene_1" data-name="Ebene 1" xmlns="http://www.w3.org/2000/svg" viewBox="0 0 129.28 127.56"><defs><style>.cls-1{fill:#0080b0;}.cls-2{fill:#1a3553;}.cls-3{fill:#76b82a;}</style></defs><polygon class="cls-1" points="64.66 99.83 64.66 99.83 64.66 99.83 64.66 99.83 64.66 99.83 64.66 99.83"/><polygon class="cls-1" points="64.66 99.83 64.66 99.83 64.66 99.83 64.66 99.83"/><polygon class="cls-1" points="64.66 99.83 64.66 99.83 64.66 99.83 64.66 99.83"/><path class="cls-1" d="M81.35,48.44l0,0"/><rect class="cls-1" x="64.66" y="99.83"/><path class="cls-1" d="M37,73a2.25,2.25,0,0,0,0,.22c1.21-.87,2.47-1.71,3.8-2.52a9.61,9.61,0,0,0-2.54.69A2.92,2.92,0,0,0,37,73Z"/><path class="cls-1" d="M24.34,49.5a17.18,17.18,0,0,0-.43,1.81l.63-.22a16.09,16.09,0,0,1,.45-2.2,49.33,49.33,0,0,1,11.19-7.43,41.42,41.42,0,0,0,1.23,5.2,59.75,59.75,0,0,0-7.92,4.77c.32.13.67.26,1.09.39a66.23,66.23,0,0,1,7.14-4.12c0,.08.05.16.07.24.53,1.7,1.17,3.58,1.9,5.59l1.47.24c-1-2.22-1.82-4.28-2.54-6.12l-.12-.33c1.2-.58,2.43-1.14,3.7-1.66,1.46-.61,2.92-1.14,4.36-1.63a24.67,24.67,0,0,1-2.46-.27c-.77.28-1.54.57-2.31.89-1.26.52-2.49,1.07-3.68,1.65a48.73,48.73,0,0,1-1.59-4.88l-1-.44a46.23,46.23,0,0,0-10.23,7A8.89,8.89,0,0,1,25.73,47a11.28,11.28,0,0,1,1.66-2.42,10.67,10.67,0,0,0-1.88,2.3,11.71,11.71,0,0,0-.86,1.77c-.36.37-.73.73-1,1.08a26.17,26.17,0,0,0-2.1,2.54l.2-.08.25-.1c.55-.66,1.18-1.37,1.92-2.1Z"/><path class="cls-1" d="M88.48,67.55a7,7,0,0,0-.82-1.67,27.77,27.77,0,0,0-1.78-9.68L85.79,56c.3.53.41.86.43.84a11.51,11.51,0,0,0-.64-1.36,25.44,25.44,0,0,0-4.23-7,27.45,27.45,0,0,1,3,5.34,15.89,15.89,0,0,0-8.21-4.43c-.19-.05-.38-.08-.57-.12a28.6,28.6,0,0,0-4.95-7.9c5.17,1.07,7.64,3.56,7.56,3.53.1,0-2.45-2.85-8.1-4.1-.27-.27-.55-.55-.83-.79a20.43,20.43,0,0,0-3.9-2.87l-.4.28a20.38,20.38,0,0,1,3.79,3.11l0,0c-.21,0-.41-.07-.62-.09a36.12,36.12,0,0,0-7.42-.28c-.59.35-1.17.67-1.76,1A39.66,39.66,0,0,1,68.08,41c.42,0,.84.08,1.24.14a27.48,27.48,0,0,1,4.84,7.84,44.11,44.11,0,0,0-14.61.26A50.1,50.1,0,0,0,56,42.51c-.33.13-.66.26-1,.37a55.41,55.41,0,0,1,3.11,6.57,66.63,66.63,0,0,0-12.73,3.87c-.64.26-1.24.56-1.86.84l2.19.35a17.66,17.66,0,0,1,1.82-1.61,1,1,0,0,1,.56-.18c.19,0,.59,0,1.1.65a69.74,69.74,0,0,1,9.4-2.69,99.7,99.7,0,0,1,3.14,9.86c-1.38.27-2.77.62-4.17,1l.41.38A2.18,2.18,0,0,1,58.64,63c1.18-.33,2.35-.63,3.51-.88.19.76.37,1.52.55,2.29.67,2.88,1.22,5.69,1.65,8.39a54.27,54.27,0,0,0-9.68,3c-.88.37-1.74.77-2.6,1.17-.35-.69-.7-1.42-1.06-2.13-.57-.52-2-1.71-3.37-2.92,1,2,2,3.93,3,5.79A46.28,46.28,0,0,0,41,84.13l.08.07,1,.93a50.17,50.17,0,0,1,9.28-5.93c1.79,3.31,3.54,6.33,5.16,9A33.34,33.34,0,0,0,50,92.5l.12.11a12.27,12.27,0,0,1,2.59,3c.51.28,1,.55,1.51.79a39.64,39.64,0,0,0,4.72,2,5,5,0,0,0-1.19,1.93q-1.66,0-3.66-.18l-1-.11a4.52,4.52,0,0,1-.27.69c.41,0,.83.06,1.23.07,1.31,0,2.51,0,3.61,0a2,2,0,0,0,.12,1,2.54,2.54,0,0,0,.16.28,40.91,40.91,0,0,1-11.65,1.17,4.79,4.79,0,0,1-.12-3c-.25-.16-.73-.46-1.27-.84a5.57,5.57,0,0,0,.08,3.68l0,0c-.82-.06-1.66-.15-2.51-.28a31.93,31.93,0,0,1-7.44-2,7.06,7.06,0,0,1-.57-5.37c0-.13.09-.25.13-.38a43.73,43.73,0,0,0,10,4.15,8.25,8.25,0,0,1-2-1.79A46.09,46.09,0,0,1,35,93.87a16.87,16.87,0,0,1,1.36-2.53l-.95-.61a17.36,17.36,0,0,0-1.25,2.62c-1.18-.74-2.36-1.54-3.5-2.42a37.33,37.33,0,0,1-5.13-4.69c.19-.47.4-.94.65-1.42-.27-.17-.5-.29-.73-.44-.19.41-.52,1.19-.52,1.19s-.92-.94-1.18-1.24-1.17-1.53-1.17-1.53-.05,1.09,0,1.73c.61.83,1.26,1.66,2,2.46A10.16,10.16,0,0,0,25,93.85q.16.34.33.63c-1.41-1.4-2.1-2.37-2.13-2.34a26,26,0,0,0,4.38,5.11,27.22,27.22,0,0,0,7.8,4.87,6.56,6.56,0,0,0,1.38,1.19,11.89,11.89,0,0,0,2.9,1.46,12.26,12.26,0,0,1-2.73-1.67,6.22,6.22,0,0,1-.73-.66,29.27,29.27,0,0,0,6.13,1.61,31.66,31.66,0,0,0,3.44.32,7.39,7.39,0,0,0,3.67,2.2,22.14,22.14,0,0,1-3.45,0,15.8,15.8,0,0,0,5.5.46c4.09.56,9.55-.27,15.1-2.57a34.4,34.4,0,0,0,10-6.21A7.72,7.72,0,0,0,77.84,97a14.27,14.27,0,0,0,2.88-4.32,22.74,22.74,0,0,0,5-6.55A21.49,21.49,0,0,0,87.24,82s-.16.4-.5,1.14l.12-.55a7.62,7.62,0,0,0-1-5.41A32.57,32.57,0,0,0,87.66,66.6a6.33,6.33,0,0,1,.56,1.05,8.69,8.69,0,0,1,.79,3.4A8.71,8.71,0,0,0,88.48,67.55ZM27.93,96.8c-.82-.64-1.52-1.25-2.12-1.82a8.91,8.91,0,0,1-.69-7.36A35.65,35.65,0,0,0,29.89,92a41.28,41.28,0,0,0,3.9,2.65c-.06.22-.14.44-.19.67a7.68,7.68,0,0,0,.68,5.26A28.53,28.53,0,0,1,27.93,96.8ZM76,50.05a15.8,15.8,0,0,1,8.28,4c.12.12.22.24.33.36.25.63.5,1.3.74,2a28.63,28.63,0,0,1,1.34,8.24,13.27,13.27,0,0,0-5.32-3.47,23.21,23.21,0,0,0-2.82-.83A40.21,40.21,0,0,0,75.92,50Zm-9.34,39.4c.08-1,.13-2.14.16-3.29a24.18,24.18,0,0,1,6.79-.42,44.65,44.65,0,0,1-2.39,5.07,43.72,43.72,0,0,1-2.48,4,8.12,8.12,0,0,0-2.75,0A46.2,46.2,0,0,0,66.64,89.45ZM66.19,74.1a34.19,34.19,0,0,1,10.62-.55,53.5,53.5,0,0,1-2.69,10.77,25,25,0,0,0-7.3.35A86.36,86.36,0,0,0,66.19,74.1ZM68,95.89a44.36,44.36,0,0,1-3.32,3.94h0a32.5,32.5,0,0,0,1.06-3.77A8.24,8.24,0,0,1,68,95.89Zm-2.5-1a13.08,13.08,0,0,0-2.54.77c-.24.1-.47.2-.69.31-.78-1.3-1.71-2.9-2.73-4.78-.4-.71-.81-1.47-1.24-2.26.52-.24,1-.47,1.58-.69a36.76,36.76,0,0,1,5.86-1.88c0,1.06,0,2.07,0,3A53,53,0,0,1,65.48,94.92Zm-2.1,1.85a13.75,13.75,0,0,1,1.95-.63,36.67,36.67,0,0,1-.67,3.69s-.68-1-1.8-2.83ZM68.43,96a2.63,2.63,0,0,1,1.46.64,48.06,48.06,0,0,1-5.21,3.22h0A38.14,38.14,0,0,0,68.43,96ZM70,98.69a5.36,5.36,0,0,1-1,1.25,33.6,33.6,0,0,1-4.36-.11h0A34.08,34.08,0,0,0,70,98.69Zm-5.32,1.12a40.76,40.76,0,0,0,5.46-2.88l.07.13a1.55,1.55,0,0,1,.07.86A47.27,47.27,0,0,1,64.69,99.81ZM69.2,95a42.78,42.78,0,0,0,5.42-9.1,8.51,8.51,0,0,1,4.29,1.8,42.73,42.73,0,0,1-6.76,7.18c-.5.4-1,.77-1.43,1.12A2.81,2.81,0,0,0,69.2,95Zm6-10.49a50.33,50.33,0,0,0,3-10.73,15.92,15.92,0,0,1,4.73,1.64,7.44,7.44,0,0,1,1.8,1.42l-.23.66a38.83,38.83,0,0,1-4.77,9.06A9,9,0,0,0,75.2,84.49ZM60.07,50.39a45,45,0,0,1,14.43-.6A41.85,41.85,0,0,1,77.05,60a41.32,41.32,0,0,0-13.59.2A82.56,82.56,0,0,0,60.07,50.39Zm3.79,11.37a42.2,42.2,0,0,1,13.31-.6c.12,1.28.19,2.58.2,3.9A53.9,53.9,0,0,1,77,72.33a33,33,0,0,0-11,.17c-.38-2.75-.89-5.59-1.56-8.49C64.24,63.25,64.05,62.5,63.86,61.76Zm-11,16.74c.82-.39,1.65-.76,2.5-1.11a57.43,57.43,0,0,1,9.26-3c.56,3.78.9,7.31,1.06,10.48a37,37,0,0,0-6.37,2q-.87.36-1.71.75C56.14,84.94,54.54,81.86,52.85,78.5Zm1.72,17.14c-1.12-.63-2.28-1.36-3.49-2.17a32.16,32.16,0,0,1,6.26-4c.49.78,1,1.54,1.42,2.24,1.16,1.79,2.2,3.3,3.09,4.53A11.75,11.75,0,0,0,59.27,98,42.06,42.06,0,0,1,54.57,95.64Zm5.56,3.13a33.45,33.45,0,0,0,4.53,1.06,40.7,40.7,0,0,1-4.21-1.34,11.48,11.48,0,0,1,2.1-1.34c1.31,1.75,2.11,2.68,2.11,2.68h0a17.46,17.46,0,0,0,3.67.7,11.41,11.41,0,0,1-1.79,1.12,26.08,26.08,0,0,0-1.88-1.82A9.81,9.81,0,0,0,66,101.91l-.41.19a14.82,14.82,0,0,1-1.78.59,12.64,12.64,0,0,0,.85-2.86s-.56,1.35-1.51,3a8,8,0,0,1-1.9.16,25.43,25.43,0,0,0,3.41-3.16,45.28,45.28,0,0,1-4.37,3,2.6,2.6,0,0,1-1.18-.56,38.31,38.31,0,0,0,5.55-2.48s0,0,0,0a47,47,0,0,1-5.73.47A5.2,5.2,0,0,1,60.13,98.77Zm-1.39,1.93a38.06,38.06,0,0,0,5.89-.87,46.82,46.82,0,0,1-5.85,2s0,0,0,0A1.62,1.62,0,0,1,58.74,100.7Zm-8.23,5.76a6.88,6.88,0,0,1-3.53-2,35.86,35.86,0,0,0,11.37-1.84,3.24,3.24,0,0,0,1.33.64A30,30,0,0,1,55.92,105,20.81,20.81,0,0,1,50.51,106.46Zm2.16.4a16.08,16.08,0,0,0,3.57-1,21.67,21.67,0,0,0,4.47-2.47,9.19,9.19,0,0,0,2.18-.12l-.32.51a6.46,6.46,0,0,1-3,2.67A23.93,23.93,0,0,1,52.67,106.86Zm13.84-2.52a36.27,36.27,0,0,1-5.85,1.87,5.18,5.18,0,0,0,2.4-2.1,10.88,10.88,0,0,0,.55-1,13.43,13.43,0,0,0,2.13-.68l.52-.23a4.65,4.65,0,0,0,1.64,1.19.93.93,0,0,0,.52.07C67.8,103.78,67.17,104.07,66.51,104.34Zm2.06-.93A4.81,4.81,0,0,1,66.8,102a11.6,11.6,0,0,0,2.12-1.39,15.06,15.06,0,0,0,2.78-.16,10,10,0,0,0,3.63-1.3A32.45,32.45,0,0,1,68.57,103.41Zm8.27-5.7a13.52,13.52,0,0,1-5.26,2c-.67.11-1.32.18-1.94.23a5.84,5.84,0,0,0,1.06-1.44,28.59,28.59,0,0,0,8-4.13c.4-.29.77-.59,1.14-.89A14.08,14.08,0,0,1,76.84,97.71Zm3.51-6a24.22,24.22,0,0,1-2.23,1.79A36.63,36.63,0,0,1,71,97.61a2.17,2.17,0,0,0-.07-1.19c.5-.34,1-.7,1.57-1.1a39.68,39.68,0,0,0,7.08-6.89,4.18,4.18,0,0,1,.5.87A4.58,4.58,0,0,1,80.35,91.72Zm6.23-9.21a12.26,12.26,0,0,1-.2,1.33,27.84,27.84,0,0,1-5.18,7.08,5,5,0,0,0-.3-2.68,4.39,4.39,0,0,0-.48-.88,36.94,36.94,0,0,0,5.14-9.43A7.23,7.23,0,0,1,86.58,82.51ZM85,76a8.1,8.1,0,0,0-1.61-1.35,16.29,16.29,0,0,0-5-2A49.29,49.29,0,0,0,78.84,65c0-1.23-.08-2.45-.19-3.64a21.23,21.23,0,0,1,2.41.59,12.74,12.74,0,0,1,5.61,3.35A34.12,34.12,0,0,1,85,76Z"/><path class="cls-2" d="M26.28,51.45c1.89,0,2.45.66,4.52,1.22S46,55.32,46,55.32a21.27,21.27,0,0,1,2-1.79.2.2,0,0,1,.14-.05c.56,0,1.26,1.72,1.27,1.74h0s-1.46,1.67-1.69,2c-1,1.55.67,3.44,1.57,4.49-.1-1.12-.53-1.82-.42-2.73a6.83,6.83,0,0,1,2.51-4.15l.25.07c1.14.66,1.84,3.88,1.84,3.88s3,2.73,4,3.68.2,2.85.53,3.35,2.23,3,2.06,3.46S58.9,70.4,58.9,70.4a15.84,15.84,0,0,1-1.5,1.76,7.81,7.81,0,0,1-1.37.67s-1.3,2.3-2.1,2.4h-.26a2.82,2.82,0,0,1-1.84-.71c-.36-.4-6.06-5.24-6.06-5.24s-6.36.54-7.83,1.44A3.66,3.66,0,0,0,36.24,73s.87,2.84.14,4.53-1.1,2.14-.94,2.54S47.7,91,48.44,92,52.3,95,52.5,97.42s-.47,3.46-1.33,3.73a1.26,1.26,0,0,1-.3,0,13,13,0,0,1-4.17-1.43c-.66-.4-3.33-2.2-3.46-2.67A27.39,27.39,0,0,0,41.84,94c-.19-.25-15.5-10-17.53-11.3.18-.67-.61-2-.44-2.19.47-.4,6.78-4.17,7.37-5.57l-5.32,2.57s-3.61,2.26-3.74,2.66c-.81,3.75.13,6.27-.68,9.66a35,35,0,0,1-5.9-19.32c0-7.62,1.2-11.28,5.12-17.18,1.94-.74,4.67-1.9,5.56-1.9"/><path class="cls-2" d="M94.61,28.13a1.86,1.86,0,0,0,.07-1.31c.48-.83.79-1.32.5-1.74S95,24.45,95,22.9a13.44,13.44,0,0,0-.65-4.61c-.49-1.38-1-2.48-1.34-2.19s.16,1.42.16,1.42-.64-1.59-1-1.36.21,1.6.21,1.6-.52-.54-.78-.07.34,1.48.34,1.48S91.3,18.46,91,19s.26,1.55.26,1.55-.66-1.06-.8-.42.24.69-.16,1.41.18.87-.38,1.3.08.69-.15,1,.36,1.07,0,1.14S88,23.3,87.21,21.94s-2.52-5.49-2.82-5.25-.19.9,0,1.27c-.45.13-.42.93-.07,1.38-.5.36-.35.72.21,1.52-.39.66.25,1.16.42,1.38-.34.55.32,1.15.32,1.15a1,1,0,0,0,.37.93,1,1,0,0,0,.52,1,1.36,1.36,0,0,0,.57,1c-.15.38.85,2.54,2.24,3.4.46.44.3.33-.41,1.12a20.68,20.68,0,0,1-3.88,3.41c-1.53,1-2.26,1.66-.87.85s1.57-1,1.76-.7,1-.43,1.83-.69,2.59-.58,3.29-.91c.56.67.61-.38,1.56-.79s2.44-.51,3.38-1.54a4.08,4.08,0,0,1,2-1.37c.42-.12-.4-.2-.65-.39s-.44-.57-1-.75A1.59,1.59,0,0,0,94.61,28.13Z"/><path class="cls-2" d="M103.09,43c.29-.6.39-1,.79-1.15-.2-.49,0-1.18.51-1.2a.74.74,0,0,1,.75-.88s.06-1.12.68-.91a1.25,1.25,0,0,1,1-1.37s.17-1.5,1-1.36c0-.52.28-1.66.93-1.09.38-1.22,1-.79,1-.79l.37-1c.37-1,.66,1.63.66,1.63l.43-1.75c.43-1.75.81-.63.62.78a17.61,17.61,0,0,1-1.63,5.45c-1.32,3.16-1.77,2.88-1.77,2.88a1.87,1.87,0,0,1-.83,1.56c0,.41-1.4,1.67-1.4,1.67a2.13,2.13,0,0,1,1.33.28,1.19,1.19,0,0,1,.66,1.09s.17.07.43.47a2.19,2.19,0,0,0-1.39.25,7.74,7.74,0,0,1-3.48.77c-2,.13-2.8.61-4.08.4a24.15,24.15,0,0,0-3.55-.55c-1.9-.12-2.06-.45-2.06-.45a4.54,4.54,0,0,0,2.43,0,16.52,16.52,0,0,1,3.15-.69,2.23,2.23,0,0,0,1.18-.76c-.78-.31-.74-.21-.7-.54-.93-.15-1.72-.71-1.45-.9-1.06-.3-1.55-1-.83-.92-.73-.25-1.35-.76-.81-.82-.7-.38-.92-.62-.59-.68-.27-.15-.74-.73-.34-.64-.4-.42-.49-.92-.14-.79-.33-.34-.45-1-.16-.79-.15-.24-.08-.83.19-.6a2,2,0,0,1,.25-1.16,10.93,10.93,0,0,0,.64,2.21,5.8,5.8,0,0,0,2.3,2.76,17.48,17.48,0,0,0,2.58,1.47C102.09,44.35,102.81,43.65,103.09,43Z"/><path class="cls-3" d="M48.14,15.17c9.32,0,19.85,6.56,28.84,6.56a16.2,16.2,0,0,0,2-.11C75.4,26.94,62.72,39,53.27,41.67a19.33,19.33,0,0,1-5.35.75c-7.45,0-13.56-4.16-18.09-5.84a43.45,43.45,0,0,0-14,18.19,41.66,41.66,0,0,0,11,46.13,38.75,38.75,0,0,0,25.21,9.55h.19A40.46,40.46,0,0,0,86.07,91.68c9-14.06,7.94-32.89-2-46.22a41.14,41.14,0,0,0-3.75-4.37c-.42-.42-1.16-1.11-1.57-1.51-.63-.62-.68-1-.39-1a1.17,1.17,0,0,1,.65.34C91.06,49.24,97.49,65.22,93.87,81a43.62,43.62,0,0,1-42.82,34.52c-18.27,0-35.84-11.09-42.23-29.11A43.06,43.06,0,0,1,22,39a47.35,47.35,0,0,1,7.86-5c7-3.71,16.66-7.92,24.36-8.89A24.87,24.87,0,0,0,50.66,25a48,48,0,0,0-12.55,1.9c-3.6,1-9.82,3.43-13.48,6.46,3.48-6.79,8.64-15,19.47-17.67a16.48,16.48,0,0,1,4-.47"/><path class="cls-2" d="M119.12,22.81a4.06,4.06,0,0,1-1.55,1.09c-.79.3-2.34,1.21-3.24,1.52a3.19,3.19,0,0,0-1.37.79c-.29.24-.64-.08-1.41.21a12.69,12.69,0,0,0-2.82,2c-.57.53-.4.11-.79,0s-1.88.41-3,2c.83-1.88,1.53-1.78,3.16-2.82s1-1.09,1-1.09a3.89,3.89,0,0,1-.55.18c.24-.71,2.11-2.1,3.19-2.88s.24-.51-.31-.31-2.08-2.3-1.86-3a1.73,1.73,0,0,1-.66-.35s-.76-.3-.71-.65a1.48,1.48,0,0,1-.75-.82s-1-.59-.54-.91c-.46-.2-1-.66-.58-.84-.89-.53-2.55-2.31-2.35-2.64.27-.48,4.2,2.23,5.06,2.91s1.23.69,1.15.39a6.11,6.11,0,0,0-2-3.21c-.56-.46-.18-.74-.49-1s-2.71-1.86-.31-1a22.64,22.64,0,0,1,7.36,5c1.59,1.82,2.26,2.49,1.58,4.19,2.13-.45,2.55.32,2.82.74a.89.89,0,0,0,.62.44C119.46,22.71,119.43,22.49,119.12,22.81Z"/></svg>